PathFileType	4	(X/Y/Z)	./resultDataOpenSim/trcMotMarkerGrf/sub10/qtm-02-06.trc
DataRate	CameraRate	NumFrames	NumMarkers	Units	OrigDataRate	OrigDataStartFrame	OrigNumFrames
250.000000	250.000000	7	24	m	250.000000	478	546
Frame#	Time	L.Toe.Tip			R.Toe.Tip			L.Ankle.Lat			R.Ankle.Lat			L.Ankle.Med			R.Ankle.Med			L.Heel			R.Heel			L.Knee.Lat			R.Knee.Lat			L.Knee.Med			R.Knee.Med			L.Thigh.Upper			R.Thigh.Upper			L.ASIS			R.ASIS			V.Sacral			L.Acromium			R.Acromium			C7			L.Elbow			R.Elbow			L.Wrist.Lat			R.Wrist.Lat
		X1	Y1	Z1	X2	Y2	Z2	X3	Y3	Z3	X4	Y4	Z4	X5	Y5	Z5	X6	Y6	Z6	X7	Y7	Z7	X8	Y8	Z8	X9	Y9	Z9	X10	Y10	Z10	X11	Y11	Z11	X12	Y12	Z12	X13	Y13	Z13	X14	Y14	Z14	X15	Y15	Z15	X16	Y16	Z16	X17	Y17	Z17	X18	Y18	Z18	X19	Y19	Z19	X20	Y20	Z20	X21	Y21	Z21	X22	Y22	Z22	X23	Y23	Z23	X24	Y24	Z24

478	1.908	1.5460959	0.076907041	-0.058795055	0.77175693	0.038962559	0.14878204	1.4101217	0.06616334	-0.076137879	0.65913945	0.11821454	0.1841148	1.4233689	0.09345223	0.0042067374	0.68922518	0.12722183	0.099408522	1.3584873	0.025427131	-0.027615719	0.60239236	0.11924849	0.13736659	1.3111381	0.44685114	-0.098412218	0.92706521	0.41627561	0.19854157	1.3425355	0.4286055	0.019826038	0.96055256	0.40513753	0.07493065	1.1545241	0.80024568	-0.13721754	1.0148263	0.81396833	0.22848381	1.1839365	0.91117182	-0.052438914	1.1133909	0.9044504	0.18973852	0.96477978	0.89798612	0.0066145912	1.0379477	1.3700136	-0.10060508	1.0453365	1.3571917	0.22615634	0.9539898	1.3863542	0.061004142	0.86516545	1.0697029	-0.14178819	1.1037627	1.0023261	0.28639446	0.94096892	0.83841784	-0.22267091	1.3433188	0.9308648	0.28191015
479	1.912	1.5487061	0.071614232	-0.059156746	0.77235406	0.038930965	0.14865239	1.4121302	0.065488036	-0.07644771	0.66164236	0.1209857	0.18366644	1.4263495	0.09267794	0.0038503662	0.6924425	0.12931179	0.099246469	1.3594042	0.026500797	-0.027523184	0.60530623	0.1230809	0.13665619	1.3173913	0.44679764	-0.099315948	0.93228104	0.41663735	0.19824643	1.3487907	0.42844324	0.018914084	0.96612355	0.40486407	0.074781798	1.1619204	0.80056406	-0.13818712	1.0215583	0.81354901	0.22714326	1.1907682	0.91151984	-0.053068326	1.1202221	0.90395398	0.18900258	0.97204909	0.8979418	0.0053826075	1.0438802	1.3698964	-0.10145712	1.051181	1.3571171	0.22522925	0.95973491	1.3859402	0.060069715	0.87086787	1.0697873	-0.1429263	1.1099465	1.0023295	0.28499178	0.94643563	0.83846388	-0.22367553	1.3491258	0.92997233	0.28112286
480	1.916	1.5512456	0.066571854	-0.059458993	0.77297169	0.038887057	0.14847723	1.4142061	0.064937324	-0.076833947	0.66436818	0.12381706	0.1832228	1.4293548	0.092084928	0.003406001	0.69586812	0.13135344	0.099069114	1.3604095	0.027672993	-0.027605114	0.60841436	0.12696463	0.1359389	1.3237502	0.44685896	-0.10016605	0.93756211	0.41703768	0.19797302	1.3550261	0.42828811	0.018030588	0.97179485	0.40458229	0.074654769	1.1694333	0.80094569	-0.13924802	1.0284448	0.81311291	0.22580051	1.1976177	0.91186845	-0.053775205	1.1271805	0.90342619	0.1882102	0.97945626	0.89790846	0.0041325061	1.0498043	1.3697984	-0.1023424	1.0570637	1.3570861	0.22429222	0.96549215	1.3855601	0.059094967	0.87663563	1.0698554	-0.14409758	1.1160869	1.0023563	0.28360825	0.95199632	0.83850431	-0.224714	1.3548763	0.92905135	0.28035674
481	1.92	1.5536417	0.06208515	-0.059639309	0.77356303	0.038803241	0.14822893	1.4162999	0.064436869	-0.07726843	0.66731666	0.12667614	0.182797	1.4322084	0.091606893	0.0029306521	0.69951388	0.13334394	0.098891153	1.3614983	0.028833851	-0.027886913	0.61178429	0.13084845	0.13519447	1.3302308	0.44705173	-0.10100584	0.94292475	0.41747213	0.19771291	1.3612777	0.42819911	0.017151351	0.97758553	0.40428102	0.074560887	1.1770526	0.8014299	-0.14040403	1.035453	0.81265933	0.22446082	1.2044883	0.91220366	-0.054539324	1.134262	0.90287045	0.18734931	0.98648462	0.89802831	0.0031273557	1.055722	1.3697209	-0.1032568	1.0629713	1.3571134	0.22335947	0.97127496	1.3852329	0.058088709	0.88246449	1.0699065	-0.14529891	1.1221395	1.0023888	0.28224757	0.95764933	0.83853809	-0.22577902	1.3605718	0.92810615	0.27959904
482	1.924	1.5559318	0.058234166	-0.059627855	0.77412484	0.038672304	0.14791042	1.4183905	0.063991188	-0.07767536	0.67047564	0.12952849	0.18238795	1.4347889	0.091211643	0.002539444	0.70339363	0.13528552	0.098734676	1.3626421	0.029927502	-0.028334652	0.61544746	0.1346925	0.13441527	1.3368103	0.44737595	-0.10186631	0.94840571	0.41793015	0.19745356	1.3675634	0.42822177	0.016274748	0.98352258	0.40395742	0.074505884	1.1847518	0.80204914	-0.14164173	1.0425632	0.81219553	0.22314152	1.2113787	0.91252812	-0.055333373	1.1414596	0.90229035	0.18641005	0.99154124	0.89863882	0.0029594455	1.0616412	1.3696674	-0.10418947	1.068888	1.3572101	0.2224415	0.97709266	1.3849711	0.05706884	0.88833515	1.0699507	-0.1465255	1.1280675	1.0024088	0.28091489	0.96339613	0.83856834	-0.22686732	1.3662132	0.92714455	0.27884143
483	1.928	1.5581837	0.054925429	-0.059384247	0.77470579	0.038515539	0.14756773	1.4204744	0.063650054	-0.077947686	0.67382893	0.13236204	0.18196757	1.4370608	0.090889487	0.0023538075	0.70751666	0.13717759	0.098613678	1.3637894	0.030926598	-0.02884497	0.61938868	0.13848732	0.13360683	1.3434543	0.44781978	-0.10274336	0.95403394	0.41840201	0.19718995	1.37388	0.42837556	0.015434273	0.98963244	0.40361234	0.074491851	1.1924996	0.8028217	-0.14294291	1.0497662	0.81171917	0.22186222	1.2182862	0.91286827	-0.056162763	1.1487613	0.90168994	0.18538489	0.99304086	0.90006423	0.0042286647	1.067565	1.3696403	-0.10513217	1.0748029	1.3573759	0.22154335	0.98295119	1.3847815	0.056046547	0.89420436	1.0700116	-0.14775866	1.1338837	1.0024356	0.27961584	0.96924045	0.83860087	-0.22798229	1.3717947	0.92617178	0.2780842
484	1.932	1.560381	0.052038695	-0.058896724	0.77535666	0.038358478	0.14724517	1.4225117	0.06345152	-0.077983486	0.67738773	0.13517613	0.18151953	1.4390323	0.090619981	0.0024567898	0.71187631	0.13901348	0.098538837	1.3648744	0.031809689	-0.029274524	0.62359889	0.14224262	0.13277241	1.3501532	0.44836381	-0.10360916	0.95981761	0.41888077	0.19692533	1.3802028	0.42865405	0.014689225	0.99593538	0.40324332	0.074518564	1.2002716	0.80374838	-0.14429691	1.0570529	0.81121863	0.2206323	1.2252057	0.91325351	-0.057049391	1.1561483	0.90107527	0.18426871	0.99162649	0.90217541	0.0067178428	1.0734863	1.3696385	-0.10608124	1.0807168	1.3576006	0.2206604	0.9888511	1.3846597	0.0550241	0.90004638	1.0701072	-0.14898226	1.1396453	1.0025235	0.27835549	0.97518091	0.83864027	-0.22912396	1.3773029	0.92518839	0.27733088
